<mxfile host="app.diagrams.net" modified="2023-12-18T06:05:20.682Z" agent="Mozilla/5.0 (Windows NT 10.0; Win64; x64) AppleWebKit/537.36 (KHTML, like Gecko) Chrome/120.0.0.0 Safari/537.36" etag="d_QoLX5pz-b66Jck8HbR" version="22.1.11" type="device">
  <diagram name="PÃ¡gina-1" id="iCj5owhUU7bEBfOKQKEo">
    <mxGraphModel dx="1195" dy="660" grid="1" gridSize="10" guides="1" tooltips="1" connect="1" arrows="1" fold="1" page="1" pageScale="1" pageWidth="827" pageHeight="1169" math="0" shadow="0">
      <root>
        <mxCell id="0" />
        <mxCell id="1" parent="0" />
        <mxCell id="Ehb70zVKOew_q0uBnZxz-3" value="Tablero" style="html=1;dropTarget=0;whiteSpace=wrap;" vertex="1" parent="1">
          <mxGeometry x="380" y="195" width="120" height="60" as="geometry" />
        </mxCell>
        <mxCell id="Ehb70zVKOew_q0uBnZxz-4" value="" style="shape=module;jettyWidth=8;jettyHeight=4;" vertex="1" parent="Ehb70zVKOew_q0uBnZxz-3">
          <mxGeometry x="1" width="20" height="20" relative="1" as="geometry">
            <mxPoint x="-27" y="7" as="offset" />
          </mxGeometry>
        </mxCell>
        <mxCell id="Ehb70zVKOew_q0uBnZxz-5" value="Celda" style="html=1;dropTarget=0;whiteSpace=wrap;" vertex="1" parent="1">
          <mxGeometry x="670" y="170" width="120" height="60" as="geometry" />
        </mxCell>
        <mxCell id="Ehb70zVKOew_q0uBnZxz-6" value="" style="shape=module;jettyWidth=8;jettyHeight=4;" vertex="1" parent="Ehb70zVKOew_q0uBnZxz-5">
          <mxGeometry x="1" width="20" height="20" relative="1" as="geometry">
            <mxPoint x="-27" y="7" as="offset" />
          </mxGeometry>
        </mxCell>
        <mxCell id="Ehb70zVKOew_q0uBnZxz-7" value="Jugador" style="html=1;dropTarget=0;whiteSpace=wrap;" vertex="1" parent="1">
          <mxGeometry x="380" y="425" width="120" height="60" as="geometry" />
        </mxCell>
        <mxCell id="Ehb70zVKOew_q0uBnZxz-8" value="" style="shape=module;jettyWidth=8;jettyHeight=4;" vertex="1" parent="Ehb70zVKOew_q0uBnZxz-7">
          <mxGeometry x="1" width="20" height="20" relative="1" as="geometry">
            <mxPoint x="-27" y="7" as="offset" />
          </mxGeometry>
        </mxCell>
        <mxCell id="Ehb70zVKOew_q0uBnZxz-9" value="Juego" style="html=1;dropTarget=0;whiteSpace=wrap;" vertex="1" parent="1">
          <mxGeometry x="40" y="320" width="120" height="60" as="geometry" />
        </mxCell>
        <mxCell id="Ehb70zVKOew_q0uBnZxz-10" value="" style="shape=module;jettyWidth=8;jettyHeight=4;" vertex="1" parent="Ehb70zVKOew_q0uBnZxz-9">
          <mxGeometry x="1" width="20" height="20" relative="1" as="geometry">
            <mxPoint x="-27" y="7" as="offset" />
          </mxGeometry>
        </mxCell>
        <mxCell id="Ehb70zVKOew_q0uBnZxz-11" value="" style="rounded=0;orthogonalLoop=1;jettySize=auto;html=1;endArrow=halfCircle;endFill=0;endSize=6;strokeWidth=1;sketch=0;exitX=0;exitY=0.5;exitDx=0;exitDy=0;" edge="1" target="Ehb70zVKOew_q0uBnZxz-13" parent="1" source="Ehb70zVKOew_q0uBnZxz-3">
          <mxGeometry relative="1" as="geometry">
            <mxPoint x="300" y="310" as="sourcePoint" />
          </mxGeometry>
        </mxCell>
        <mxCell id="Ehb70zVKOew_q0uBnZxz-12" value="" style="rounded=0;orthogonalLoop=1;jettySize=auto;html=1;endArrow=oval;endFill=0;sketch=0;sourcePerimeterSpacing=0;targetPerimeterSpacing=0;endSize=10;exitX=1;exitY=0;exitDx=0;exitDy=0;" edge="1" target="Ehb70zVKOew_q0uBnZxz-13" parent="1" source="Ehb70zVKOew_q0uBnZxz-9">
          <mxGeometry relative="1" as="geometry">
            <mxPoint x="390" y="400" as="sourcePoint" />
          </mxGeometry>
        </mxCell>
        <mxCell id="Ehb70zVKOew_q0uBnZxz-13" value="" style="ellipse;whiteSpace=wrap;html=1;align=center;aspect=fixed;fillColor=none;strokeColor=none;resizable=0;perimeter=centerPerimeter;rotatable=0;allowArrows=0;points=[];outlineConnect=1;" vertex="1" parent="1">
          <mxGeometry x="240" y="230" width="10" height="10" as="geometry" />
        </mxCell>
        <mxCell id="Ehb70zVKOew_q0uBnZxz-14" value="" style="rounded=0;orthogonalLoop=1;jettySize=auto;html=1;endArrow=halfCircle;endFill=0;endSize=6;strokeWidth=1;sketch=0;exitX=0;exitY=0.5;exitDx=0;exitDy=0;" edge="1" target="Ehb70zVKOew_q0uBnZxz-16" parent="1" source="Ehb70zVKOew_q0uBnZxz-7">
          <mxGeometry relative="1" as="geometry">
            <mxPoint x="370" y="385" as="sourcePoint" />
          </mxGeometry>
        </mxCell>
        <mxCell id="Ehb70zVKOew_q0uBnZxz-15" value="" style="rounded=0;orthogonalLoop=1;jettySize=auto;html=1;endArrow=oval;endFill=0;sketch=0;sourcePerimeterSpacing=0;targetPerimeterSpacing=0;endSize=10;exitX=1;exitY=0.75;exitDx=0;exitDy=0;" edge="1" target="Ehb70zVKOew_q0uBnZxz-16" parent="1" source="Ehb70zVKOew_q0uBnZxz-9">
          <mxGeometry relative="1" as="geometry">
            <mxPoint x="350" y="355" as="sourcePoint" />
          </mxGeometry>
        </mxCell>
        <mxCell id="Ehb70zVKOew_q0uBnZxz-16" value="" style="ellipse;whiteSpace=wrap;html=1;align=center;aspect=fixed;fillColor=none;strokeColor=none;resizable=0;perimeter=centerPerimeter;rotatable=0;allowArrows=0;points=[];outlineConnect=1;" vertex="1" parent="1">
          <mxGeometry x="220" y="415" width="10" height="10" as="geometry" />
        </mxCell>
        <mxCell id="Ehb70zVKOew_q0uBnZxz-18" value="" style="rounded=0;orthogonalLoop=1;jettySize=auto;html=1;endArrow=halfCircle;endFill=0;endSize=6;strokeWidth=1;sketch=0;exitX=0;exitY=0.5;exitDx=0;exitDy=0;" edge="1" target="Ehb70zVKOew_q0uBnZxz-20" parent="1" source="Ehb70zVKOew_q0uBnZxz-5">
          <mxGeometry relative="1" as="geometry">
            <mxPoint x="370" y="175" as="sourcePoint" />
          </mxGeometry>
        </mxCell>
        <mxCell id="Ehb70zVKOew_q0uBnZxz-19" value="" style="rounded=0;orthogonalLoop=1;jettySize=auto;html=1;endArrow=oval;endFill=0;sketch=0;sourcePerimeterSpacing=0;targetPerimeterSpacing=0;endSize=10;exitX=1;exitY=0.5;exitDx=0;exitDy=0;" edge="1" target="Ehb70zVKOew_q0uBnZxz-20" parent="1" source="Ehb70zVKOew_q0uBnZxz-3">
          <mxGeometry relative="1" as="geometry">
            <mxPoint x="330" y="175" as="sourcePoint" />
          </mxGeometry>
        </mxCell>
        <mxCell id="Ehb70zVKOew_q0uBnZxz-20" value="" style="ellipse;whiteSpace=wrap;html=1;align=center;aspect=fixed;fillColor=none;strokeColor=none;resizable=0;perimeter=centerPerimeter;rotatable=0;allowArrows=0;points=[];outlineConnect=1;" vertex="1" parent="1">
          <mxGeometry x="570" y="195" width="10" height="10" as="geometry" />
        </mxCell>
        <mxCell id="Ehb70zVKOew_q0uBnZxz-22" value="Inicia el juego" style="text;html=1;align=center;verticalAlign=middle;resizable=0;points=[];autosize=1;strokeColor=none;fillColor=none;" vertex="1" parent="1">
          <mxGeometry x="230" y="395" width="100" height="30" as="geometry" />
        </mxCell>
        <mxCell id="Ehb70zVKOew_q0uBnZxz-23" value="Genera tablero" style="text;html=1;align=center;verticalAlign=middle;resizable=0;points=[];autosize=1;strokeColor=none;fillColor=none;" vertex="1" parent="1">
          <mxGeometry x="230" y="200" width="100" height="30" as="geometry" />
        </mxCell>
        <mxCell id="Ehb70zVKOew_q0uBnZxz-24" value="" style="endArrow=none;html=1;rounded=0;entryX=0.5;entryY=1;entryDx=0;entryDy=0;exitX=0.5;exitY=0;exitDx=0;exitDy=0;" edge="1" parent="1" source="Ehb70zVKOew_q0uBnZxz-7" target="Ehb70zVKOew_q0uBnZxz-3">
          <mxGeometry width="50" height="50" relative="1" as="geometry">
            <mxPoint x="280" y="350" as="sourcePoint" />
            <mxPoint x="330" y="300" as="targetPoint" />
          </mxGeometry>
        </mxCell>
        <mxCell id="Ehb70zVKOew_q0uBnZxz-25" value="Informa de celda" style="text;html=1;align=center;verticalAlign=middle;resizable=0;points=[];autosize=1;strokeColor=none;fillColor=none;" vertex="1" parent="1">
          <mxGeometry x="535" y="165" width="110" height="30" as="geometry" />
        </mxCell>
      </root>
    </mxGraphModel>
  </diagram>
</mxfile>
